<svg width="811" height="568" viewBox="0 0 811 568" fill="none" xmlns="http://www.w3.org/2000/svg">
<path d="M762.699 459.59V480.078C759.26 479.031 755.671 479.031 748.193 479.031H725.013V549.918C725.013 557.395 725.013 560.984 726.06 564.424H694.355C695.402 560.984 695.402 557.395 695.402 549.918V479.031H671.474C663.997 479.031 660.408 479.031 656.968 480.078V459.59H762.699Z" fill="white"/>
<path d="M531.084 509.688C531.084 476.488 559.349 456 589.707 456C608.999 456 626.347 462.281 640.703 479.18L620.813 496.827C617.673 490.396 610.046 477.086 591.651 477.086C572.06 477.086 561.143 495.481 561.143 509.838C561.143 527.933 573.556 544.234 591.651 544.234C609.448 544.234 619.318 529.578 622.01 523.746L643.545 534.962C637.563 549.767 620.514 567.414 589.707 567.414C559.349 567.414 531.084 547.973 531.084 509.688Z" fill="white"/>
<path d="M478.488 472.302L522.605 555.9C524.4 559.489 526.045 561.882 528.139 564.274H493.443C492.695 560.835 490.602 557.245 486.713 549.768L483.423 543.637H479.834H432.876H429.137L426.445 549.768C423.155 557.245 421.51 560.835 421.061 564.274H391.6C393.395 561.882 394.741 559.489 396.386 555.9L433.324 472.302C436.166 466.02 437.512 462.73 437.96 459.59H472.656C473.404 462.73 475.049 466.02 478.488 472.302ZM453.962 487.705L437.661 524.345H473.254L453.962 487.705Z" fill="white"/>
<path d="M327.529 459.59C370.748 459.59 395.274 468.862 395.274 495.631C395.274 525.092 368.655 534.065 336.053 534.065H326.482V549.768C326.482 557.245 326.482 560.835 327.529 564.274H295.824C296.871 560.835 296.871 557.245 296.871 549.768V474.096C296.871 466.619 296.871 463.029 295.824 459.59H327.529ZM326.482 512.68H335.903C345.475 512.68 365.066 511.035 365.066 497.426C365.066 483.966 345.475 482.321 335.903 482.321H326.482V512.68Z" fill="white"/>
<path d="M274.113 564.274H242.408C242.857 561.134 242.259 557.844 241.212 551.563L231.94 498.473L213.097 551.563C210.853 557.844 209.806 561.134 209.657 564.274H174.214C174.064 561.134 173.017 557.844 170.774 551.563L152.08 498.473L142.659 551.563C141.612 557.844 141.014 561.134 141.462 564.274H115.74C117.385 560.835 117.983 557.245 119.329 549.768L132.789 474.096C134.135 466.619 134.733 463.029 134.284 459.59H168.98C169.129 463.029 170.325 466.619 173.017 474.096L195.3 537.056L217.733 474.096C220.424 466.619 221.621 463.029 221.77 459.59H255.718C255.269 463.029 255.868 466.619 257.214 474.096L270.523 549.768C271.869 557.245 272.468 560.835 274.113 564.274Z" fill="white"/>
<path d="M94.0099 459.59C92.963 463.029 92.963 466.619 92.963 474.096V549.768C92.963 557.245 92.963 560.835 94.0099 564.274H62.3054C63.3523 560.835 63.3523 557.245 63.3523 549.768V474.096C63.3523 466.619 63.3523 463.029 62.3054 459.59H94.0099Z" fill="white"/>
<path d="M590.536 392.833H641.382C648.86 392.833 652.449 392.833 655.889 391.786V412.274H559.878C560.925 408.835 560.925 405.245 560.925 397.768V322.096C560.925 314.619 560.925 311.029 559.878 307.59H654.393V328.078C650.953 327.031 647.364 327.031 639.887 327.031H590.536V347.52H625.38C632.858 347.52 636.447 347.52 639.887 346.473V367.858C636.447 366.811 632.858 366.811 625.38 366.811H590.536V392.833Z" fill="white"/>
<path d="M512.416 307.59H541.877C540.082 309.983 538.736 312.375 537.091 315.965L500.153 399.563C497.311 405.844 495.965 409.134 495.517 412.274H460.821C460.373 409.134 459.027 405.844 456.185 399.563L419.396 315.965C417.901 312.375 416.405 309.983 414.611 307.59H449.306C449.755 311.029 451.4 314.619 454.69 322.096L480.861 381.318L507.032 322.096C510.322 314.619 511.967 311.029 512.416 307.59Z" fill="white"/>
<path d="M379.961 320.302L424.078 403.9C425.872 407.489 427.518 409.882 429.611 412.274H394.916C394.168 408.835 392.074 405.245 388.186 397.768L384.896 391.637H381.307H334.348H330.61L327.918 397.768C324.628 405.245 322.983 408.835 322.534 412.274H293.073C294.867 409.882 296.213 407.489 297.858 403.9L334.797 320.302C337.638 314.02 338.984 310.73 339.433 307.59H374.128C374.876 310.73 376.521 314.02 379.961 320.302ZM355.435 335.705L339.134 372.345H374.727L355.435 335.705Z" fill="white"/>
<path d="M272.581 322.096V397.768C272.581 405.245 272.581 408.835 273.628 412.274H241.923C242.97 408.835 242.97 405.245 242.97 397.768V368.008H192.273V397.768C192.273 405.245 192.273 408.835 193.32 412.274H161.615C162.662 408.835 162.662 405.245 162.662 397.768V322.096C162.662 314.619 162.662 311.029 161.615 307.59H193.32C192.273 311.029 192.273 314.619 192.273 322.096V348.716H242.97V322.096C242.97 314.619 242.97 311.029 241.923 307.59H273.628C272.581 311.029 272.581 314.619 272.581 322.096Z" fill="white"/>
<path d="M779.362 230.663C779.362 211.82 713.859 226.625 713.859 182.957C713.859 162.618 737.488 152 758.874 152C779.661 152 792.373 156.786 804.636 169.647L784.596 184.452C782.502 180.265 778.315 174.133 759.472 174.133C750.349 174.133 743.62 177.573 743.62 182.957C743.62 197.463 810.02 185.349 810.02 229.018C810.02 254.441 782.353 263.414 760.369 263.414C730.16 263.414 713.56 249.955 706.831 238.589L728.067 222.288C730.011 226.775 742.722 239.486 760.818 239.486C769.193 239.486 779.362 237.841 779.362 230.663Z" fill="white"/>
<path d="M690.088 170.096V245.768C690.088 253.245 690.088 256.835 691.135 260.274H654.944C653.598 257.134 651.504 253.844 647.018 247.563L607.836 192.08V245.768C607.836 253.245 607.836 256.835 608.883 260.274H583.16C584.207 256.835 584.207 253.245 584.207 245.768V170.096C584.207 166.806 584.207 164.264 584.058 162.17C582.861 159.029 581.665 156.038 580.917 155.59H617.108C618.454 159.029 620.996 162.619 626.23 170.096L666.459 226.775V170.096C666.459 162.619 666.459 159.029 665.412 155.59H691.135C690.088 159.029 690.088 162.619 690.088 170.096Z" fill="white"/>
<path d="M502.724 263.414C467.281 263.414 442.456 243.375 442.456 206.137C442.456 172.638 467.281 152 502.724 152C538.167 152 562.992 172.638 562.992 206.137C562.992 243.375 538.167 263.414 502.724 263.414ZM475.057 206.885C475.057 235.299 492.255 241.73 502.724 241.73C513.192 241.73 530.391 235.299 530.391 206.885C530.391 179.368 513.192 172.638 502.724 172.638C492.255 172.638 475.057 179.368 475.057 206.885Z" fill="white"/>
<path d="M420.725 155.59C419.678 159.029 419.678 162.619 419.678 170.096V245.768C419.678 253.245 419.678 256.835 420.725 260.274H389.021C390.068 256.835 390.068 253.245 390.068 245.768V170.096C390.068 162.619 390.068 159.029 389.021 155.59H420.725Z" fill="white"/>
<path d="M369.604 155.59V176.078C366.164 175.031 362.575 175.031 355.098 175.031H331.917V245.918C331.917 253.395 331.917 256.984 332.964 260.424H301.26C302.307 256.984 302.307 253.395 302.307 245.918V175.031H278.379C270.901 175.031 267.312 175.031 263.873 176.078V155.59H369.604Z" fill="white"/>
<path d="M139.484 205.688C139.484 172.488 167.749 152 198.107 152C217.399 152 234.747 158.281 249.103 175.18L229.213 192.827C226.073 186.396 218.446 173.086 200.051 173.086C180.46 173.086 169.543 191.481 169.543 205.838C169.543 223.933 181.956 240.234 200.051 240.234C217.848 240.234 227.718 225.578 230.41 219.746L251.945 230.962C245.963 245.767 228.914 263.414 198.107 263.414C167.749 263.414 139.484 243.973 139.484 205.688Z" fill="white"/>
<path d="M86.8881 168.302L131.005 251.9C132.8 255.489 134.445 257.882 136.538 260.274H101.843C101.095 256.835 99.0016 253.245 95.1133 245.768L91.8232 239.637H88.234H41.2756H37.5369L34.845 245.768C31.5549 253.245 29.9099 256.835 29.4612 260.274H0C1.79459 257.882 3.14053 255.489 4.78558 251.9L41.7242 168.302C44.5657 162.02 45.9116 158.73 46.3603 155.59H81.0557C81.8034 158.73 83.4485 162.02 86.8881 168.302ZM62.362 183.705L46.0612 220.345H81.6539L62.362 183.705Z" fill="white"/>
<path d="M627.459 63.4095L645.255 97.8059C647.2 101.694 648.097 103.339 651.536 108.274H617.439C616.991 105.433 615.196 101.096 613.551 97.8059L598.596 68.6438C595.755 68.7933 592.764 68.7933 589.773 68.7933H580.202V93.768C580.202 101.245 580.202 104.835 581.248 108.274H549.544C550.591 104.835 550.591 101.245 550.591 93.768V18.0961C550.591 10.6187 550.591 7.02948 549.544 3.58984H581.248C624.468 3.58984 648.994 11.8151 648.994 35.1447C648.994 49.5015 640.619 58.4744 627.459 63.4095ZM589.623 23.4799H580.202V50.0997H589.623C599.194 50.0997 618.785 48.6042 618.785 36.7898C618.785 24.9754 599.194 23.4799 589.623 23.4799Z" fill="white"/>
<path d="M526.772 18.0961V64.6059C526.922 95.8617 501.947 109.77 476.673 109.919C451.848 109.77 424.78 93.9176 424.63 62.6618V18.0961C424.63 10.6187 424.63 7.02948 423.583 3.58984H455.288C454.241 7.02948 454.241 10.6187 454.241 18.0961V62.6618C455.288 75.523 463.364 84.7951 476.673 84.7951C490.133 84.7951 498.956 77.4672 500.153 64.6059V18.0961C500.153 10.6187 500.153 7.02948 499.106 3.58984H527.819C526.772 7.02948 526.772 10.6187 526.772 18.0961Z" fill="white"/>
<path d="M343.895 111.414C308.452 111.414 283.626 91.3746 283.626 54.1368C283.626 20.6378 308.452 0 343.895 0C379.338 0 404.163 20.6378 404.163 54.1368C404.163 91.3746 379.338 111.414 343.895 111.414ZM316.228 54.8846C316.228 83.2989 333.426 89.7295 343.895 89.7295C354.363 89.7295 371.561 83.2989 371.561 54.8846C371.561 27.3675 354.363 20.6378 343.895 20.6378C333.426 20.6378 316.228 27.3675 316.228 54.8846Z" fill="white"/>
<path d="M234.271 65.6528V93.768C234.271 101.245 234.271 104.835 235.318 108.274H203.613C204.66 104.835 204.66 101.245 204.66 93.768V69.0924L163.384 11.9646C160.693 8.37542 158.599 5.98264 156.206 3.58984H190.752C192.247 7.02948 194.939 10.6187 200.174 18.0961L220.363 46.66L240.552 18.0961C245.786 10.7682 248.328 7.02948 249.674 3.58984H279.136C276.892 5.98264 274.799 8.37542 272.256 11.9646L234.271 65.6528Z" fill="white"/>
</svg>
